<svg width="34" height="34" viewBox="0 0 34 34" fill="none" xmlns="http://www.w3.org/2000/svg">
<path opacity="0.4" d="M24.2048 33.7753H9.56886C3.84514 33.7753 0 29.7609 0 23.7851V9.99196C0 4.01608 3.84514 0 9.56886 0H24.2065C29.9302 0 33.7753 4.01608 33.7753 9.99196V23.7851C33.7753 29.7609 29.9302 33.7753 24.2048 33.7753" fill="#FF008C"/>
<path d="M22.6771 18.7275C23.052 18.2361 24.444 16.6996 26.2425 17.7939C27.3891 18.4829 28.3533 19.4151 29.3851 20.4131C29.7786 20.7947 30.0606 21.2309 30.2464 21.6953C30.8086 23.1003 30.5165 24.7892 29.9154 26.1807C29.2027 27.8371 27.8384 29.0886 26.1195 29.6357C25.3561 29.8806 24.555 29.9854 23.7562 29.9854H9.60286C8.19445 29.9853 6.94779 29.6577 5.9261 29.043C5.2862 28.6579 5.17328 27.7709 5.64778 27.1934C6.44148 26.2308 7.22562 25.2644 8.01594 24.29C9.5221 22.4261 10.5374 21.8859 11.6654 22.3604C12.1229 22.5562 12.5823 22.8515 13.055 23.1621C14.3148 23.9963 16.0656 25.1413 18.3724 23.8984C19.9598 23.0304 20.8776 21.5412 21.6781 20.251C22.0056 19.7258 22.3157 19.202 22.6771 18.7275ZM11.4163 7.07422C13.7298 7.07441 15.6126 8.95898 15.6126 11.2725C15.6126 13.586 13.7298 15.4686 11.4163 15.4688C9.10104 15.4688 7.21907 13.5861 7.21907 11.2725C7.21909 8.95887 9.10105 7.07422 11.4163 7.07422Z" fill="#FF008C"/>
</svg>
